# xmcd CD database file
#
# Track frame offsets:
#	150
#	15062
#	31925
#	50467
#	75535
#	94840
#	115272
#	127132
#	146832
#	163872
#	182605
#	198135
#	218477
#	232380
#	249627
#
# Disc length: 3599 seconds
#
# Revision: 0
# Processed by: cddbd v1.5.2PL0 Copyright (c) Steve Scherf et al.
# Submitted via: CDex 1.70beta2
#
DISCID=c90e0d0f
DTITLE=Annika Fehling - Good for You
DYEAR=2006
DGENRE=Jazz
TTITLE0=Good for You
TTITLE1=Already home
TTITLE2=Hey you
TTITLE3=Berlin
TTITLE4=Älskar du?
TTITLE5=To life
TTITLE6=Megaphone
TTITLE7=För min skull
TTITLE8=Here
TTITLE9=Balanserar
TTITLE10=Od du vore
TTITLE11=Angels in disguise
TTITLE12=När en stjärna faller
TTITLE13=Djupa vattten
TTITLE14=Seamless
EXTD=YEAR: 2006
EXTT0=
EXTT1=
EXTT2=
EXTT3=
EXTT4=
EXTT5=
EXTT6=
EXTT7=
EXTT8=
EXTT9=
EXTT10=
EXTT11=
EXTT12=
EXTT13=
EXTT14=
PLAYORDER=
